Coordinates
version=1
nRows=20
nColumns=38
inDegrees=no

Units are S.I. units (second, meters, Newtons, ...)
If the header above contains a line with 'inDegrees', this indicates whether rotational values are in degrees (yes) or radians (no).

endheader
time	pelvis_tilt	pelvis_list	pelvis_rotation	pelvis_tx	pelvis_ty	pelvis_tz	hip_flexion_r	hip_adduction_r	hip_rotation_r	knee_angle_r	ankle_angle_r	subtalar_angle_r	mtp_angle_r	hip_flexion_l	hip_adduction_l	hip_rotation_l	knee_angle_l	ankle_angle_l	subtalar_angle_l	mtp_angle_l	lumbar_extension	lumbar_bending	lumbar_rotation	arm_flex_r	arm_add_r	arm_rot_r	elbow_flex_r	pro_sup_r	wrist_flex_r	wrist_dev_r	arm_flex_l	arm_add_l	arm_rot_l	elbow_flex_l	pro_sup_l	wrist_flex_l	wrist_dev_l
1.49	-0.20202	1.39855	-1.33457	0.935814	0.364905	0.927778	-0.391664	0.0524859	-0.299006	0.318416	-0.158775	0	0	0.112742	-0.0141574	-0.149917	0	-0.370065	0	0	-0.270987	0.0585608	-0.0913389	-0.29611	-0.275841	-0.117954	0.787664	0.258636	0	0	-0.27839	-0.190005	-0.110587	0.669751	1.5708	0	0
1.5	-0.198503	1.40058	-1.34157	0.936027	0.353662	0.926664	-0.392644	0.0460014	-0.302559	0.340106	-0.158446	0	0	0.105444	-0.0109312	-0.139912	0	-0.376946	0	0	-0.268773	0.0546594	-0.0886266	-0.298162	-0.275754	-0.11773	0.784694	0.257051	0	0	-0.283142	-0.189842	-0.115671	0.668189	1.5708	0	0
1.51	-0.18772	1.40265	-1.35597	0.936357	0.34217	0.925779	-0.392484	0.0374617	-0.306087	0.36529	-0.15883	0	0	0.0963164	-0.00625837	-0.127556	0	-0.386275	0	0	-0.266066	0.0494445	-0.0861168	-0.300601	-0.275488	-0.117854	0.781037	0.255459	0	0	-0.2882	-0.189533	-0.121167	0.666105	1.5708	0	0
1.52	-0.168064	1.40466	-1.37929	0.936875	0.330424	0.925119	-0.391377	0.026735	-0.308756	0.393456	-0.160377	0	0	0.0861722	0.000263325	-0.117323	0	-0.396271	0	0	-0.262906	0.0428666	-0.0835435	-0.303654	-0.275238	-0.118038	0.776648	0.254178	0	0	-0.293259	-0.189023	-0.126515	0.663279	1.5708	0	0
1.53	-0.140426	1.40682	-1.41034	0.937584	0.318408	0.924674	-0.389528	0.0144706	-0.309535	0.423194	-0.163487	0	0	0.0770541	0.00837221	-0.111169	0	-0.407911	0	0	-0.258966	0.035228	-0.0812577	-0.307152	-0.275033	-0.118077	0.771386	0.253353	0	0	-0.298024	-0.188481	-0.131395	0.659673	1.5708	0	0
1.54	-0.0988408	1.41892	-1.4536	0.938485	0.305944	0.923728	-0.36979	-0.00459998	-0.318754	0.475743	-0.151633	0	0	0.0801001	0.0199171	-0.10277	0	-0.425143	0	0	-0.232756	0.0313013	-0.0396312	-0.346698	-0.219112	-0.273933	0.778796	0.385741	0	0	-0.26416	-0.22737	0.0275956	0.621217	1.42326	0	0
1.55	-0.108859	1.41232	-1.44726	0.939712	0.292758	0.923263	-0.379914	-0.0080939	-0.31012	0.495388	-0.182569	0	0	0.205662	-0.0541574	-0.445915	0.311322	-0.318752	0	0	-0.244555	0.0247225	-0.0800065	-0.320866	-0.273992	-0.126121	0.766518	0.263544	0	0	-0.315561	-0.183803	-0.148853	0.659868	1.5708	0	0
1.56	-0.0798305	1.41589	-1.47509	0.940896	0.280209	0.923449	-0.374968	-0.0172263	-0.300751	0.52405	-0.198113	0	0	0.203101	-0.0489118	-0.451011	0.323506	-0.336208	0	0	-0.236723	0.0180247	-0.0811755	-0.325836	-0.271066	-0.131251	0.759001	0.268855	0	0	-0.318275	-0.183839	-0.152077	0.65238	1.5708	0	0
1.57	-0.0536403	1.42067	-1.49879	0.942197	0.267713	0.923778	-0.365814	-0.0256222	-0.288338	0.557077	-0.216308	0	0	0.197733	-0.0366801	-0.431994	0.320363	-0.348472	0	0	-0.227189	0.012226	-0.0830898	-0.330726	-0.267644	-0.13722	0.750918	0.274562	0	0	-0.319433	-0.183811	-0.15455	0.642914	1.5708	0	0
1.58	-0.0322322	1.42581	-1.51681	0.943654	0.255248	0.924236	-0.353095	-0.033549	-0.272911	0.5953	-0.237576	0	0	0.190602	-0.0231315	-0.404197	0.311561	-0.357183	0	0	-0.217052	0.00789072	-0.0855508	-0.335965	-0.264144	-0.144446	0.743501	0.281123	0	0	-0.319608	-0.183563	-0.156826	0.632767	1.5708	0	0
1.59	-0.0167309	1.42853	-1.52898	0.945249	0.242943	0.924954	-0.341255	-0.0405138	-0.247883	0.634823	-0.25482	0	0	0.181183	-0.0137296	-0.384117	0.307176	-0.358865	0	0	-0.210542	0.00497192	-0.0894517	-0.340337	-0.266864	-0.137101	0.738869	0.271736	0	0	-0.32082	-0.182469	-0.161698	0.626329	1.5708	0	0
1.6	-0.0211971	1.43879	-1.52453	0.946671	0.231163	0.925431	-0.325538	-0.0436348	-0.144321	0.662644	-0.272758	0	0	0.18156	-0.00948208	-0.368051	0.307197	-0.358347	0	0	-0.195248	0.00446976	-0.0897592	-0.341855	-0.268295	-0.13346	0.728655	0.269452	0	0	-0.31771	-0.180175	-0.165488	0.612374	1.5708	0	0
1.61	-0.00660607	1.44085	-1.53444	0.948498	0.219044	0.926425	-0.305172	-0.051434	-0.132459	0.711391	-0.306834	0	0	0.171764	-0.00317226	-0.355411	0.307143	-0.352202	0	0	-0.189132	0.00296646	-0.0944683	-0.346822	-0.269158	-0.132849	0.725596	0.268128	0	0	-0.31651	-0.17946	-0.167793	0.604934	1.5708	0	0
1.62	0.0189632	1.44092	-1.5551	0.950347	0.207172	0.927654	-0.28307	-0.0617289	-0.126306	0.763283	-0.352993	0	0	0.158751	0.00419847	-0.345174	0.305784	-0.343893	0	0	-0.185951	0.000322347	-0.0998026	-0.351269	-0.269429	-0.133658	0.723989	0.267647	0	0	-0.314726	-0.179121	-0.170062	0.599739	1.5708	0	0
1.63	0.0548644	1.43993	-1.58635	0.952127	0.19556	0.929003	-0.258722	-0.0743844	-0.12242	0.816408	-0.40662	0	0	0.143229	0.012724	-0.337343	0.302251	-0.336043	0	0	-0.184692	-0.00375568	-0.10518	-0.354735	-0.269105	-0.135244	0.722738	0.268358	0	0	-0.31243	-0.179577	-0.171292	0.596419	1.5708	0	0
1.64	0.0939361	1.43799	-1.61972	0.953922	0.184321	0.930381	-0.232723	-0.0881735	-0.122411	0.869183	-0.471923	0	0	0.125691	0.0220081	-0.328613	0.296407	-0.327019	0	0	-0.184525	-0.00518652	-0.0986756	-0.369699	-0.237451	-0.22641	0.731257	0.348899	0	0	-0.297013	-0.186739	-0.145401	0.583245	1.5708	0	0
1.65	0.130685	1.43458	-1.6483	0.955822	0.173534	0.931726	-0.206906	-0.101943	-0.127585	0.921585	-0.531189	0	0	0.106048	0.0316403	-0.316188	0.288475	-0.317598	0	0	-0.189276	-0.0112229	-0.119974	-0.360991	-0.257372	-0.168321	0.726095	0.301938	0	0	-0.304054	-0.183421	-0.169417	0.595115	1.5708	0	0
1.66	0.162915	1.43414	-1.67603	0.957478	0.162625	0.93272	-0.176224	-0.115445	-0.128985	0.974965	-0.570038	0	0	0.0886754	0.0391159	-0.312858	0.280172	-0.309922	0	0	-0.188873	-0.0141336	-0.125701	-0.364346	-0.256296	-0.173918	0.729099	0.307475	0	0	-0.300202	-0.185863	-0.166345	0.597179	1.5708	0	0
1.67	0.188319	1.43568	-1.69809	0.959001	0.151755	0.933446	-0.143307	-0.127123	-0.128947	1.02604	-0.602249	0	0	0.0736421	0.0441678	-0.314754	0.272943	-0.302575	0	0	-0.185638	-0.0159171	-0.129661	-0.36853	-0.255321	-0.180522	0.732149	0.313241	0	0	-0.295228	-0.188765	-0.159908	0.598231	1.5708	0	0
1.68	0.203434	1.43645	-1.7102	0.96042	0.1412	0.934178	-0.110525	-0.137344	-0.128807	1.07454	-0.633684	0	0	0.0577361	0.0478344	-0.314236	0.264668	-0.296226	0	0	-0.183867	-0.0161913	-0.132888	-0.372581	-0.254278	-0.188218	0.735918	0.319529	0	0	-0.288385	-0.19231	-0.150569	0.599	1.5708	0	0
